<svg xmlns="http://www.w3.org/2000/svg" xmlns:xlink="http://www.w3.org/1999/xlink" contentStyleType="text/css" height="2193px" preserveAspectRatio="none" style="width:1699px;height:2193px;background:#FFFFFF;" version="1.1" viewBox="0 0 1699 2193" width="1699px" zoomAndPan="magnify"><title>HDB Officer's Role - BTO Application and Project Management Flow</title><defs/><g><text fill="#000000" font-family="sans-serif" font-size="14" font-weight="bold" lengthAdjust="spacing" textLength="452.1563" x="625.2161" y="30.1074">HDB Officer's Role - BTO Application and Project Management Flow</text><rect fill="none" height="582.8691" style="stroke:#000000;stroke-width:1.5;" width="1285.0439" x="10" y="296.6973"/><rect fill="none" height="299.25" style="stroke:#000000;stroke-width:1.5;" width="1042.8188" x="20" y="573.3164"/><rect fill="none" height="345.2012" style="stroke:#000000;stroke-width:1.5;" width="1275.0439" x="20" y="893.5664"/><rect fill="none" height="400.7832" style="stroke:#000000;stroke-width:1.5;" width="1673.5884" x="20" y="1252.7676"/><rect fill="none" height="426.0742" style="stroke:#000000;stroke-width:1.5;" width="1275.0439" x="20" y="1667.5508"/><line style="stroke:#181818;stroke-width:0.5;stroke-dasharray:5.0,5.0;" x1="53" x2="53" y1="123.2422" y2="2110.625"/><line style="stroke:#181818;stroke-width:0.5;stroke-dasharray:5.0,5.0;" x1="202.3311" x2="202.3311" y1="123.2422" y2="2110.625"/><line style="stroke:#181818;stroke-width:0.5;stroke-dasharray:5.0,5.0;" x1="347.7793" x2="347.7793" y1="123.2422" y2="2110.625"/><line style="stroke:#181818;stroke-width:0.5;stroke-dasharray:5.0,5.0;" x1="458.2549" x2="458.2549" y1="123.2422" y2="2110.625"/><line style="stroke:#181818;stroke-width:0.5;stroke-dasharray:5.0,5.0;" x1="654.7119" x2="654.7119" y1="123.2422" y2="2110.625"/><line style="stroke:#181818;stroke-width:0.5;stroke-dasharray:5.0,5.0;" x1="786.5391" x2="786.5391" y1="123.2422" y2="2110.625"/><line style="stroke:#181818;stroke-width:0.5;stroke-dasharray:5.0,5.0;" x1="1057.5708" x2="1057.5708" y1="123.2422" y2="2110.625"/><line style="stroke:#181818;stroke-width:0.5;stroke-dasharray:5.0,5.0;" x1="1226.1133" x2="1226.1133" y1="123.2422" y2="2110.625"/><line style="stroke:#181818;stroke-width:0.5;stroke-dasharray:5.0,5.0;" x1="1457.5239" x2="1457.5239" y1="123.2422" y2="2110.625"/><line style="stroke:#181818;stroke-width:0.5;stroke-dasharray:5.0,5.0;" x1="1652.3335" x2="1652.3335" y1="123.2422" y2="2110.625"/><text fill="#000000" font-family="sans-serif" font-size="14" lengthAdjust="spacing" textLength="41.2275" x="30" y="119.7285">Officer</text><ellipse cx="53.6138" cy="53.1211" fill="#E2E2F0" rx="8" ry="8" style="stroke:#181818;stroke-width:0.5;"/><path d="M53.6138,61.1211 L53.6138,88.1211 M40.6138,69.1211 L66.6138,69.1211 M53.6138,88.1211 L40.6138,103.1211 M53.6138,88.1211 L66.6138,103.1211 " fill="none" style="stroke:#181818;stroke-width:0.5;"/><text fill="#000000" font-family="sans-serif" font-size="14" lengthAdjust="spacing" textLength="41.2275" x="30" y="2124.7324">Officer</text><ellipse cx="53.6138" cy="2136.7461" fill="#E2E2F0" rx="8" ry="8" style="stroke:#181818;stroke-width:0.5;"/><path d="M53.6138,2144.7461 L53.6138,2171.7461 M40.6138,2152.7461 L66.6138,2152.7461 M53.6138,2171.7461 L40.6138,2186.7461 M53.6138,2171.7461 L66.6138,2186.7461 " fill="none" style="stroke:#181818;stroke-width:0.5;"/><rect fill="#E2E2F0" height="32.6211" rx="2.5" ry="2.5" style="stroke:#181818;stroke-width:0.5;" width="78.5996" x="163.3311" y="89.6211"/><text fill="#000000" font-family="sans-serif" font-size="14" lengthAdjust="spacing" textLength="64.5996" x="170.3311" y="111.7285">MainLogin</text><rect fill="#E2E2F0" height="32.6211" rx="2.5" ry="2.5" style="stroke:#181818;stroke-width:0.5;" width="78.5996" x="163.3311" y="2109.625"/><text fill="#000000" font-family="sans-serif" font-size="14" lengthAdjust="spacing" textLength="64.5996" x="170.3311" y="2131.7324">MainLogin</text><rect fill="#E2E2F0" height="32.6211" rx="2.5" ry="2.5" style="stroke:#181818;stroke-width:0.5;" width="110.4756" x="292.7793" y="89.6211"/><text fill="#000000" font-family="sans-serif" font-size="14" lengthAdjust="spacing" textLength="96.4756" x="299.7793" y="111.7285">UserRepository</text><rect fill="#E2E2F0" height="32.6211" rx="2.5" ry="2.5" style="stroke:#181818;stroke-width:0.5;" width="110.4756" x="292.7793" y="2109.625"/><text fill="#000000" font-family="sans-serif" font-size="14" lengthAdjust="spacing" textLength="96.4756" x="299.7793" y="2131.7324">UserRepository</text><rect fill="#E2E2F0" height="32.6211" rx="2.5" ry="2.5" style="stroke:#181818;stroke-width:0.5;" width="91.7998" x="413.2549" y="89.6211"/><text fill="#000000" font-family="sans-serif" font-size="14" lengthAdjust="spacing" textLength="77.7998" x="420.2549" y="111.7285">OfficerPortal</text><rect fill="#E2E2F0" height="32.6211" rx="2.5" ry="2.5" style="stroke:#181818;stroke-width:0.5;" width="91.7998" x="413.2549" y="2109.625"/><text fill="#000000" font-family="sans-serif" font-size="14" lengthAdjust="spacing" textLength="77.7998" x="420.2549" y="2131.7324">OfficerPortal</text><rect fill="#E2E2F0" height="32.6211" rx="2.5" ry="2.5" style="stroke:#181818;stroke-width:0.5;" width="112.8271" x="598.7119" y="89.6211"/><text fill="#000000" font-family="sans-serif" font-size="14" lengthAdjust="spacing" textLength="98.8271" x="605.7119" y="111.7285">ProjectManager</text><rect fill="#E2E2F0" height="32.6211" rx="2.5" ry="2.5" style="stroke:#181818;stroke-width:0.5;" width="112.8271" x="598.7119" y="2109.625"/><text fill="#000000" font-family="sans-serif" font-size="14" lengthAdjust="spacing" textLength="98.8271" x="605.7119" y="2131.7324">ProjectManager</text><rect fill="#E2E2F0" height="32.6211" rx="2.5" ry="2.5" style="stroke:#181818;stroke-width:0.5;" width="131.5166" x="721.5391" y="89.6211"/><text fill="#000000" font-family="sans-serif" font-size="14" lengthAdjust="spacing" textLength="117.5166" x="728.5391" y="111.7285">ApplicationHandler</text><rect fill="#E2E2F0" height="32.6211" rx="2.5" ry="2.5" style="stroke:#181818;stroke-width:0.5;" width="131.5166" x="721.5391" y="2109.625"/><text fill="#000000" font-family="sans-serif" font-size="14" lengthAdjust="spacing" textLength="117.5166" x="728.5391" y="2131.7324">ApplicationHandler</text><rect fill="#E2E2F0" height="32.6211" rx="2.5" ry="2.5" style="stroke:#181818;stroke-width:0.5;" width="110.4961" x="1002.5708" y="89.6211"/><text fill="#000000" font-family="sans-serif" font-size="14" lengthAdjust="spacing" textLength="96.4961" x="1009.5708" y="111.7285">EnquiryHandler</text><rect fill="#E2E2F0" height="32.6211" rx="2.5" ry="2.5" style="stroke:#181818;stroke-width:0.5;" width="110.4961" x="1002.5708" y="2109.625"/><text fill="#000000" font-family="sans-serif" font-size="14" lengthAdjust="spacing" textLength="96.4961" x="1009.5708" y="2131.7324">EnquiryHandler</text><rect fill="#E2E2F0" height="32.6211" rx="2.5" ry="2.5" style="stroke:#181818;stroke-width:0.5;" width="115.9307" x="1169.1133" y="89.6211"/><text fill="#000000" font-family="sans-serif" font-size="14" lengthAdjust="spacing" textLength="101.9307" x="1176.1133" y="111.7285">TemplateProject</text><rect fill="#E2E2F0" height="32.6211" rx="2.5" ry="2.5" style="stroke:#181818;stroke-width:0.5;" width="115.9307" x="1169.1133" y="2109.625"/><text fill="#000000" font-family="sans-serif" font-size="14" lengthAdjust="spacing" textLength="101.9307" x="1176.1133" y="2131.7324">TemplateProject</text><rect fill="#E2E2F0" height="32.6211" rx="2.5" ry="2.5" style="stroke:#181818;stroke-width:0.5;" width="105.8271" x="1405.5239" y="89.6211"/><text fill="#000000" font-family="sans-serif" font-size="14" lengthAdjust="spacing" textLength="91.8271" x="1412.5239" y="111.7285">ManagerPortal</text><rect fill="#E2E2F0" height="32.6211" rx="2.5" ry="2.5" style="stroke:#181818;stroke-width:0.5;" width="105.8271" x="1405.5239" y="2109.625"/><text fill="#000000" font-family="sans-serif" font-size="14" lengthAdjust="spacing" textLength="91.8271" x="1412.5239" y="2131.7324">ManagerPortal</text><text fill="#000000" font-family="sans-serif" font-size="14" lengthAdjust="spacing" textLength="55.2549" x="1622.3335" y="119.7285">Manager</text><ellipse cx="1652.9609" cy="53.1211" fill="#E2E2F0" rx="8" ry="8" style="stroke:#181818;stroke-width:0.5;"/><path d="M1652.9609,61.1211 L1652.9609,88.1211 M1639.9609,69.1211 L1665.9609,69.1211 M1652.9609,88.1211 L1639.9609,103.1211 M1652.9609,88.1211 L1665.9609,103.1211 " fill="none" style="stroke:#181818;stroke-width:0.5;"/><text fill="#000000" font-family="sans-serif" font-size="14" lengthAdjust="spacing" textLength="55.2549" x="1622.3335" y="2124.7324">Manager</text><ellipse cx="1652.9609" cy="2136.7461" fill="#E2E2F0" rx="8" ry="8" style="stroke:#181818;stroke-width:0.5;"/><path d="M1652.9609,2144.7461 L1652.9609,2171.7461 M1639.9609,2152.7461 L1665.9609,2152.7461 M1652.9609,2171.7461 L1639.9609,2186.7461 M1652.9609,2171.7461 L1665.9609,2186.7461 " fill="none" style="stroke:#181818;stroke-width:0.5;"/><polygon fill="#181818" points="190.6309,152.5332,200.6309,156.5332,190.6309,160.5332,194.6309,156.5332" style="stroke:#181818;stroke-width:1.0;"/><line style="stroke:#181818;stroke-width:1.0;" x1="53.6138" x2="196.6309" y1="156.5332" y2="156.5332"/><text fill="#000000" font-family="sans-serif" font-size="13" lengthAdjust="spacing" textLength="125.0171" x="60.6138" y="151.2705">Login with credentials</text><polygon fill="#181818" points="336.0171,183.8242,346.0171,187.8242,336.0171,191.8242,340.0171,187.8242" style="stroke:#181818;stroke-width:1.0;"/><line style="stroke:#181818;stroke-width:1.0;" x1="202.6309" x2="342.0171" y1="187.8242" y2="187.8242"/><text fill="#000000" font-family="sans-serif" font-size="13" lengthAdjust="spacing" textLength="121.3862" x="209.6309" y="182.5615">login(users, scanner)</text><polygon fill="#181818" points="213.6309,215.1152,203.6309,219.1152,213.6309,223.1152,209.6309,219.1152" style="stroke:#181818;stroke-width:1.0;"/><line style="stroke:#181818;stroke-width:1.0;stroke-dasharray:2.0,2.0;" x1="207.6309" x2="347.0171" y1="219.1152" y2="219.1152"/><text fill="#000000" font-family="sans-serif" font-size="13" lengthAdjust="spacing" textLength="114.1563" x="219.6309" y="213.8525">return Officer object</text><polygon fill="#181818" points="447.1548,246.4063,457.1548,250.4063,447.1548,254.4063,451.1548,250.4063" style="stroke:#181818;stroke-width:1.0;"/><line style="stroke:#181818;stroke-width:1.0;" x1="202.6309" x2="453.1548" y1="250.4063" y2="250.4063"/><text fill="#000000" font-family="sans-serif" font-size="13" lengthAdjust="spacing" textLength="224.6943" x="209.6309" y="245.1436">create OfficerPortal(officer, pm, ah, eh)</text><polygon fill="#181818" points="64.6138,277.6973,54.6138,281.6973,64.6138,285.6973,60.6138,281.6973" style="stroke:#181818;stroke-width:1.0;"/><line style="stroke:#181818;stroke-width:1.0;stroke-dasharray:2.0,2.0;" x1="58.6138" x2="458.1548" y1="281.6973" y2="281.6973"/><text fill="#000000" font-family="sans-serif" font-size="13" lengthAdjust="spacing" textLength="127.1689" x="70.6138" y="276.4346">Display officer options</text><path d="M10,296.6973 L224.0127,296.6973 L224.0127,305.9883 L214.0127,315.9883 L10,315.9883 L10,296.6973 " fill="#EEEEEE" style="stroke:#000000;stroke-width:1.5;"/><rect fill="none" height="582.8691" style="stroke:#000000;stroke-width:1.5;" width="1285.0439" x="10" y="296.6973"/><text fill="#000000" font-family="sans-serif" font-size="13" font-weight="bold" lengthAdjust="spacing" textLength="169.0127" x="25" y="311.7256">Apply for BTO as Applicant</text><polygon fill="#181818" points="447.1548,335.2793,457.1548,339.2793,447.1548,343.2793,451.1548,339.2793" style="stroke:#181818;stroke-width:1.0;"/><line style="stroke:#181818;stroke-width:1.0;" x1="53.6138" x2="453.1548" y1="339.2793" y2="339.2793"/><text fill="#000000" font-family="sans-serif" font-size="13" lengthAdjust="spacing" textLength="130.6094" x="60.6138" y="334.0166">Select "Apply for BTO"</text><polygon fill="#181818" points="643.1255,366.5703,653.1255,370.5703,643.1255,374.5703,647.1255,370.5703" style="stroke:#181818;stroke-width:1.0;"/><line style="stroke:#181818;stroke-width:1.0;" x1="459.1548" x2="649.1255" y1="370.5703" y2="370.5703"/><text fill="#000000" font-family="sans-serif" font-size="13" lengthAdjust="spacing" textLength="127.8799" x="466.1548" y="365.3076">getTemplateProjects()</text><polygon fill="#181818" points="470.1548,397.8613,460.1548,401.8613,470.1548,405.8613,466.1548,401.8613" style="stroke:#181818;stroke-width:1.0;"/><line style="stroke:#181818;stroke-width:1.0;stroke-dasharray:2.0,2.0;" x1="464.1548" x2="654.1255" y1="401.8613" y2="401.8613"/><text fill="#000000" font-family="sans-serif" font-size="13" lengthAdjust="spacing" textLength="171.9707" x="476.1548" y="396.5986">return list of available projects</text><polygon fill="#181818" points="64.6138,429.1523,54.6138,433.1523,64.6138,437.1523,60.6138,433.1523" style="stroke:#181818;stroke-width:1.0;"/><line style="stroke:#181818;stroke-width:1.0;stroke-dasharray:2.0,2.0;" x1="58.6138" x2="458.1548" y1="433.1523" y2="433.1523"/><text fill="#000000" font-family="sans-serif" font-size="13" lengthAdjust="spacing" textLength="135.8398" x="70.6138" y="427.8896">Display eligible projects</text><polygon fill="#181818" points="447.1548,460.4434,457.1548,464.4434,447.1548,468.4434,451.1548,464.4434" style="stroke:#181818;stroke-width:1.0;"/><line style="stroke:#181818;stroke-width:1.0;" x1="53.6138" x2="453.1548" y1="464.4434" y2="464.4434"/><text fill="#000000" font-family="sans-serif" font-size="13" lengthAdjust="spacing" textLength="153.2007" x="60.6138" y="459.1807">Select project and flat type</text><polygon fill="#181818" points="775.2974,491.7344,785.2974,495.7344,775.2974,499.7344,779.2974,495.7344" style="stroke:#181818;stroke-width:1.0;"/><line style="stroke:#181818;stroke-width:1.0;" x1="459.1548" x2="781.2974" y1="495.7344" y2="495.7344"/><text fill="#000000" font-family="sans-serif" font-size="13" lengthAdjust="spacing" textLength="284.6733" x="466.1548" y="490.4717">applyForProject(officer, selectedProject, scanner)</text><polygon fill="#181818" points="1215.0786,523.0254,1225.0786,527.0254,1215.0786,531.0254,1219.0786,527.0254" style="stroke:#181818;stroke-width:1.0;"/><line style="stroke:#181818;stroke-width:1.0;" x1="787.2974" x2="1221.0786" y1="527.0254" y2="527.0254"/><text fill="#000000" font-family="sans-serif" font-size="13" lengthAdjust="spacing" textLength="100.4326" x="794.2974" y="521.7627">Check availability</text><polygon fill="#181818" points="798.2974,554.3164,788.2974,558.3164,798.2974,562.3164,794.2974,558.3164" style="stroke:#181818;stroke-width:1.0;"/><line style="stroke:#181818;stroke-width:1.0;stroke-dasharray:2.0,2.0;" x1="792.2974" x2="1226.0786" y1="558.3164" y2="558.3164"/><text fill="#000000" font-family="sans-serif" font-size="13" lengthAdjust="spacing" textLength="135.8398" x="804.2974" y="553.0537">return availability status</text><path d="M20,573.3164 L80.1709,573.3164 L80.1709,582.6074 L70.1709,592.6074 L20,592.6074 L20,573.3164 " fill="#EEEEEE" style="stroke:#000000;stroke-width:1.5;"/><rect fill="none" height="299.25" style="stroke:#000000;stroke-width:1.5;" width="1042.8188" x="20" y="573.3164"/><text fill="#000000" font-family="sans-serif" font-size="13" font-weight="bold" lengthAdjust="spacing" textLength="15.1709" x="35" y="588.3447">alt</text><text fill="#000000" font-family="sans-serif" font-size="11" font-weight="bold" lengthAdjust="spacing" textLength="94.1499" x="95.1709" y="587.1865">[Project available]</text><polygon fill="#181818" points="64.6138,611.8984,54.6138,615.8984,64.6138,619.8984,60.6138,615.8984" style="stroke:#181818;stroke-width:1.0;"/><line style="stroke:#181818;stroke-width:1.0;" x1="58.6138" x2="786.2974" y1="615.8984" y2="615.8984"/><text fill="#000000" font-family="sans-serif" font-size="13" lengthAdjust="spacing" textLength="181.3652" x="70.6138" y="610.6357">setProjApplied(selectedProject)</text><polygon fill="#181818" points="64.6138,643.1895,54.6138,647.1895,64.6138,651.1895,60.6138,647.1895" style="stroke:#181818;stroke-width:1.0;"/><line style="stroke:#181818;stroke-width:1.0;" x1="58.6138" x2="786.2974" y1="647.1895" y2="647.1895"/><text fill="#000000" font-family="sans-serif" font-size="13" lengthAdjust="spacing" textLength="238.3101" x="70.6138" y="641.9268">setApplicationStatus("Pending Approval")</text><polygon fill="#181818" points="64.6138,674.4805,54.6138,678.4805,64.6138,682.4805,60.6138,678.4805" style="stroke:#181818;stroke-width:1.0;"/><line style="stroke:#181818;stroke-width:1.0;" x1="58.6138" x2="786.2974" y1="678.4805" y2="678.4805"/><text fill="#000000" font-family="sans-serif" font-size="13" lengthAdjust="spacing" textLength="197.2598" x="70.6138" y="673.2178">setAppliedFlatType(selectedType)</text><line style="stroke:#181818;stroke-width:1.0;" x1="787.2974" x2="829.2974" y1="709.7715" y2="709.7715"/><line style="stroke:#181818;stroke-width:1.0;" x1="829.2974" x2="829.2974" y1="709.7715" y2="722.7715"/><line style="stroke:#181818;stroke-width:1.0;" x1="788.2974" x2="829.2974" y1="722.7715" y2="722.7715"/><polygon fill="#181818" points="798.2974,718.7715,788.2974,722.7715,798.2974,726.7715,794.2974,722.7715" style="stroke:#181818;stroke-width:1.0;"/><text fill="#000000" font-family="sans-serif" font-size="13" lengthAdjust="spacing" textLength="256.5215" x="794.2974" y="704.5088">projectsPendingApproval.put(officer, project)</text><polygon fill="#181818" points="470.1548,750.0625,460.1548,754.0625,470.1548,758.0625,466.1548,754.0625" style="stroke:#181818;stroke-width:1.0;"/><line style="stroke:#181818;stroke-width:1.0;stroke-dasharray:2.0,2.0;" x1="464.1548" x2="786.2974" y1="754.0625" y2="754.0625"/><text fill="#000000" font-family="sans-serif" font-size="13" lengthAdjust="spacing" textLength="122.8271" x="476.1548" y="748.7998">return success status</text><polygon fill="#181818" points="64.6138,781.3535,54.6138,785.3535,64.6138,789.3535,60.6138,785.3535" style="stroke:#181818;stroke-width:1.0;"/><line style="stroke:#181818;stroke-width:1.0;stroke-dasharray:2.0,2.0;" x1="58.6138" x2="458.1548" y1="785.3535" y2="785.3535"/><text fill="#000000" font-family="sans-serif" font-size="13" lengthAdjust="spacing" textLength="182.8125" x="70.6138" y="780.0908">Display application confirmation</text><line style="stroke:#000000;stroke-width:1.0;stroke-dasharray:2.0,2.0;" x1="20" x2="1062.8188" y1="794.3535" y2="794.3535"/><text fill="#000000" font-family="sans-serif" font-size="11" font-weight="bold" lengthAdjust="spacing" textLength="114.3076" x="25" y="806.2236">[Project not available]</text><polygon fill="#181818" points="470.1548,829.2754,460.1548,833.2754,470.1548,837.2754,466.1548,833.2754" style="stroke:#181818;stroke-width:1.0;"/><line style="stroke:#181818;stroke-width:1.0;stroke-dasharray:2.0,2.0;" x1="464.1548" x2="786.2974" y1="833.2754" y2="833.2754"/><text fill="#000000" font-family="sans-serif" font-size="13" lengthAdjust="spacing" textLength="121.3799" x="476.1548" y="828.0127">return error message</text><polygon fill="#181818" points="64.6138,860.5664,54.6138,864.5664,64.6138,868.5664,60.6138,864.5664" style="stroke:#181818;stroke-width:1.0;"/><line style="stroke:#181818;stroke-width:1.0;stroke-dasharray:2.0,2.0;" x1="58.6138" x2="458.1548" y1="864.5664" y2="864.5664"/><text fill="#000000" font-family="sans-serif" font-size="13" lengthAdjust="spacing" textLength="130.0444" x="70.6138" y="859.3037">Display error message</text><path d="M20,893.5664 L291.1226,893.5664 L291.1226,902.8574 L281.1226,912.8574 L20,912.8574 L20,893.5664 " fill="#EEEEEE" style="stroke:#000000;stroke-width:1.5;"/><rect fill="none" height="345.2012" style="stroke:#000000;stroke-width:1.5;" width="1275.0439" x="20" y="893.5664"/><text fill="#000000" font-family="sans-serif" font-size="13" font-weight="bold" lengthAdjust="spacing" textLength="226.1226" x="35" y="908.5947">Register to Handle Project as Officer</text><polygon fill="#181818" points="447.1548,932.1484,457.1548,936.1484,447.1548,940.1484,451.1548,936.1484" style="stroke:#181818;stroke-width:1.0;"/><line style="stroke:#181818;stroke-width:1.0;" x1="53.6138" x2="453.1548" y1="936.1484" y2="936.1484"/><text fill="#000000" font-family="sans-serif" font-size="13" lengthAdjust="spacing" textLength="180.4766" x="60.6138" y="930.8857">Select "Apply as project officer"</text><polygon fill="#181818" points="643.1255,963.4395,653.1255,967.4395,643.1255,971.4395,647.1255,967.4395" style="stroke:#181818;stroke-width:1.0;"/><line style="stroke:#181818;stroke-width:1.0;" x1="459.1548" x2="649.1255" y1="967.4395" y2="967.4395"/><text fill="#000000" font-family="sans-serif" font-size="13" lengthAdjust="spacing" textLength="127.8799" x="466.1548" y="962.1768">getTemplateProjects()</text><polygon fill="#181818" points="470.1548,994.7305,460.1548,998.7305,470.1548,1002.7305,466.1548,998.7305" style="stroke:#181818;stroke-width:1.0;"/><line style="stroke:#181818;stroke-width:1.0;stroke-dasharray:2.0,2.0;" x1="464.1548" x2="654.1255" y1="998.7305" y2="998.7305"/><text fill="#000000" font-family="sans-serif" font-size="13" lengthAdjust="spacing" textLength="117.0444" x="476.1548" y="993.4678">return list of projects</text><polygon fill="#181818" points="64.6138,1026.0215,54.6138,1030.0215,64.6138,1034.0215,60.6138,1030.0215" style="stroke:#181818;stroke-width:1.0;"/><line style="stroke:#181818;stroke-width:1.0;stroke-dasharray:2.0,2.0;" x1="58.6138" x2="458.1548" y1="1030.0215" y2="1030.0215"/><text fill="#000000" font-family="sans-serif" font-size="13" lengthAdjust="spacing" textLength="146.6816" x="70.6138" y="1024.7588">Display available projects</text><polygon fill="#181818" points="447.1548,1057.3125,457.1548,1061.3125,447.1548,1065.3125,451.1548,1061.3125" style="stroke:#181818;stroke-width:1.0;"/><line style="stroke:#181818;stroke-width:1.0;" x1="53.6138" x2="453.1548" y1="1061.3125" y2="1061.3125"/><text fill="#000000" font-family="sans-serif" font-size="13" lengthAdjust="spacing" textLength="78.7617" x="60.6138" y="1056.0498">Select project</text><line style="stroke:#181818;stroke-width:1.0;" x1="459.1548" x2="501.1548" y1="1092.6035" y2="1092.6035"/><line style="stroke:#181818;stroke-width:1.0;" x1="501.1548" x2="501.1548" y1="1092.6035" y2="1105.6035"/><line style="stroke:#181818;stroke-width:1.0;" x1="460.1548" x2="501.1548" y1="1105.6035" y2="1105.6035"/><polygon fill="#181818" points="470.1548,1101.6035,460.1548,1105.6035,470.1548,1109.6035,466.1548,1105.6035" style="stroke:#181818;stroke-width:1.0;"/><text fill="#000000" font-family="sans-serif" font-size="13" lengthAdjust="spacing" textLength="93.1899" x="466.1548" y="1087.3408">applyAsOfficer()</text><polygon fill="#181818" points="64.6138,1132.8945,54.6138,1136.8945,64.6138,1140.8945,60.6138,1136.8945" style="stroke:#181818;stroke-width:1.0;"/><line style="stroke:#181818;stroke-width:1.0;" x1="58.6138" x2="458.1548" y1="1136.8945" y2="1136.8945"/><text fill="#000000" font-family="sans-serif" font-size="13" lengthAdjust="spacing" textLength="252.1606" x="70.6138" y="1131.6318">setAppliedProjectAsOfficer(selectedProject)</text><polygon fill="#181818" points="1215.0786,1164.1855,1225.0786,1168.1855,1215.0786,1172.1855,1219.0786,1168.1855" style="stroke:#181818;stroke-width:1.0;"/><line style="stroke:#181818;stroke-width:1.0;" x1="459.1548" x2="1221.0786" y1="1168.1855" y2="1168.1855"/><text fill="#000000" font-family="sans-serif" font-size="13" lengthAdjust="spacing" textLength="151.7471" x="466.1548" y="1162.9229">Add to pendingOfficers list</text><polygon fill="#181818" points="470.1548,1195.4766,460.1548,1199.4766,470.1548,1203.4766,466.1548,1199.4766" style="stroke:#181818;stroke-width:1.0;"/><line style="stroke:#181818;stroke-width:1.0;stroke-dasharray:2.0,2.0;" x1="464.1548" x2="1226.0786" y1="1199.4766" y2="1199.4766"/><text fill="#000000" font-family="sans-serif" font-size="13" lengthAdjust="spacing" textLength="108.3799" x="476.1548" y="1194.2139">return confirmation</text><polygon fill="#181818" points="64.6138,1226.7676,54.6138,1230.7676,64.6138,1234.7676,60.6138,1230.7676" style="stroke:#181818;stroke-width:1.0;"/><line style="stroke:#181818;stroke-width:1.0;stroke-dasharray:2.0,2.0;" x1="58.6138" x2="458.1548" y1="1230.7676" y2="1230.7676"/><text fill="#000000" font-family="sans-serif" font-size="13" lengthAdjust="spacing" textLength="182.8125" x="70.6138" y="1225.5049">Display application confirmation</text><path d="M20,1252.7676 L232.6162,1252.7676 L232.6162,1262.0586 L222.6162,1272.0586 L20,1272.0586 L20,1252.7676 " fill="#EEEEEE" style="stroke:#000000;stroke-width:1.5;"/><rect fill="none" height="400.7832" style="stroke:#000000;stroke-width:1.5;" width="1673.5884" x="20" y="1252.7676"/><text fill="#000000" font-family="sans-serif" font-size="13" font-weight="bold" lengthAdjust="spacing" textLength="167.6162" x="35" y="1267.7959">Manager Approval Process</text><path d="M1387,1277.0586 L1387,1304.0586 L1529,1304.0586 L1529,1287.0586 L1519,1277.0586 L1387,1277.0586 " fill="#FEFFDD" style="stroke:#181818;stroke-width:0.5;"/><path d="M1519,1277.0586 L1519,1287.0586 L1529,1287.0586 L1519,1277.0586 " fill="#FEFFDD" style="stroke:#181818;stroke-width:0.5;"/><text fill="#000000" font-family="sans-serif" font-size="13" lengthAdjust="spacing" textLength="121.3989" x="1393" y="1296.0869">Manager logs in later</text><polygon fill="#181818" points="1469.4375,1328.6406,1459.4375,1332.6406,1469.4375,1336.6406,1465.4375,1332.6406" style="stroke:#181818;stroke-width:1.0;"/><line style="stroke:#181818;stroke-width:1.0;" x1="1463.4375" x2="1651.9609" y1="1332.6406" y2="1332.6406"/><text fill="#000000" font-family="sans-serif" font-size="13" lengthAdjust="spacing" textLength="164.0171" x="1475.4375" y="1327.3779">approveOfficerApplications()</text><polygon fill="#181818" points="1238.0786,1359.9316,1228.0786,1363.9316,1238.0786,1367.9316,1234.0786,1363.9316" style="stroke:#181818;stroke-width:1.0;"/><line style="stroke:#181818;stroke-width:1.0;" x1="1232.0786" x2="1457.4375" y1="1363.9316" y2="1363.9316"/><text fill="#000000" font-family="sans-serif" font-size="13" lengthAdjust="spacing" textLength="119.2217" x="1244.0786" y="1358.6689">getPendingOfficers()</text><polygon fill="#181818" points="1446.4375,1391.2227,1456.4375,1395.2227,1446.4375,1399.2227,1450.4375,1395.2227" style="stroke:#181818;stroke-width:1.0;"/><line style="stroke:#181818;stroke-width:1.0;stroke-dasharray:2.0,2.0;" x1="1227.0786" x2="1452.4375" y1="1395.2227" y2="1395.2227"/><text fill="#000000" font-family="sans-serif" font-size="13" lengthAdjust="spacing" textLength="163.3062" x="1234.0786" y="1389.96">return list of pending officers</text><polygon fill="#181818" points="1640.9609,1422.5137,1650.9609,1426.5137,1640.9609,1430.5137,1644.9609,1426.5137" style="stroke:#181818;stroke-width:1.0;"/><line style="stroke:#181818;stroke-width:1.0;stroke-dasharray:2.0,2.0;" x1="1458.4375" x2="1646.9609" y1="1426.5137" y2="1426.5137"/><text fill="#000000" font-family="sans-serif" font-size="13" lengthAdjust="spacing" textLength="138.0171" x="1465.4375" y="1421.251">Display pending officers</text><polygon fill="#181818" points="1469.4375,1453.8047,1459.4375,1457.8047,1469.4375,1461.8047,1465.4375,1457.8047" style="stroke:#181818;stroke-width:1.0;"/><line style="stroke:#181818;stroke-width:1.0;" x1="1463.4375" x2="1651.9609" y1="1457.8047" y2="1457.8047"/><text fill="#000000" font-family="sans-serif" font-size="13" lengthAdjust="spacing" textLength="87.4326" x="1475.4375" y="1452.542">Approve officer</text><polygon fill="#181818" points="1238.0786,1485.0957,1228.0786,1489.0957,1238.0786,1493.0957,1234.0786,1489.0957" style="stroke:#181818;stroke-width:1.0;"/><line style="stroke:#181818;stroke-width:1.0;" x1="1232.0786" x2="1457.4375" y1="1489.0957" y2="1489.0957"/><text fill="#000000" font-family="sans-serif" font-size="13" lengthAdjust="spacing" textLength="207.3589" x="1244.0786" y="1483.833">Move officer to approvedOfficers list</text><polygon fill="#181818" points="1446.4375,1516.3867,1456.4375,1520.3867,1446.4375,1524.3867,1450.4375,1520.3867" style="stroke:#181818;stroke-width:1.0;"/><line style="stroke:#181818;stroke-width:1.0;stroke-dasharray:2.0,2.0;" x1="1227.0786" x2="1452.4375" y1="1520.3867" y2="1520.3867"/><text fill="#000000" font-family="sans-serif" font-size="13" lengthAdjust="spacing" textLength="70.8081" x="1234.0786" y="1515.124">confirmation</text><polygon fill="#181818" points="359.0171,1547.6777,349.0171,1551.6777,359.0171,1555.6777,355.0171,1551.6777" style="stroke:#181818;stroke-width:1.0;"/><line style="stroke:#181818;stroke-width:1.0;" x1="353.0171" x2="1457.4375" y1="1551.6777" y2="1551.6777"/><text fill="#000000" font-family="sans-serif" font-size="13" lengthAdjust="spacing" textLength="169.0317" x="365.0171" y="1546.415">getOfficerByUserID(officerID)</text><polygon fill="#181818" points="1446.4375,1578.9688,1456.4375,1582.9688,1446.4375,1586.9688,1450.4375,1582.9688" style="stroke:#181818;stroke-width:1.0;"/><line style="stroke:#181818;stroke-width:1.0;stroke-dasharray:2.0,2.0;" x1="348.0171" x2="1452.4375" y1="1582.9688" y2="1582.9688"/><text fill="#000000" font-family="sans-serif" font-size="13" lengthAdjust="spacing" textLength="114.1563" x="355.0171" y="1577.7061">return Officer object</text><polygon fill="#181818" points="64.6138,1610.2598,54.6138,1614.2598,64.6138,1618.2598,60.6138,1614.2598" style="stroke:#181818;stroke-width:1.0;"/><line style="stroke:#181818;stroke-width:1.0;" x1="58.6138" x2="1457.4375" y1="1614.2598" y2="1614.2598"/><text fill="#000000" font-family="sans-serif" font-size="13" lengthAdjust="spacing" textLength="212.4116" x="70.6138" y="1608.9971">setAssignedProjectAsOfficer(project)</text><polygon fill="#181818" points="1640.9609,1641.5508,1650.9609,1645.5508,1640.9609,1649.5508,1644.9609,1645.5508" style="stroke:#181818;stroke-width:1.0;"/><line style="stroke:#181818;stroke-width:1.0;stroke-dasharray:2.0,2.0;" x1="1458.4375" x2="1646.9609" y1="1645.5508" y2="1645.5508"/><text fill="#000000" font-family="sans-serif" font-size="13" lengthAdjust="spacing" textLength="170.5234" x="1465.4375" y="1640.2881">Display approval confirmation</text><path d="M20,1667.5508 L232.5845,1667.5508 L232.5845,1676.8418 L222.5845,1686.8418 L20,1686.8418 L20,1667.5508 " fill="#EEEEEE" style="stroke:#000000;stroke-width:1.5;"/><rect fill="none" height="426.0742" style="stroke:#000000;stroke-width:1.5;" width="1275.0439" x="20" y="1667.5508"/><text fill="#000000" font-family="sans-serif" font-size="13" font-weight="bold" lengthAdjust="spacing" textLength="167.5845" x="35" y="1682.5791">Project Handling by Officer</text><polygon fill="#181818" points="447.1548,1706.1328,457.1548,1710.1328,447.1548,1714.1328,451.1548,1710.1328" style="stroke:#181818;stroke-width:1.0;"/><line style="stroke:#181818;stroke-width:1.0;" x1="53.6138" x2="453.1548" y1="1710.1328" y2="1710.1328"/><text fill="#000000" font-family="sans-serif" font-size="13" lengthAdjust="spacing" textLength="132.958" x="60.6138" y="1704.8701">View assigned projects</text><polygon fill="#181818" points="64.6138,1737.4238,54.6138,1741.4238,64.6138,1745.4238,60.6138,1741.4238" style="stroke:#181818;stroke-width:1.0;"/><line style="stroke:#181818;stroke-width:1.0;" x1="58.6138" x2="458.1548" y1="1741.4238" y2="1741.4238"/><text fill="#000000" font-family="sans-serif" font-size="13" lengthAdjust="spacing" textLength="174.1226" x="70.6138" y="1736.1611">getAssignedProjectAsOfficer()</text><polygon fill="#181818" points="447.1548,1768.7148,457.1548,1772.7148,447.1548,1776.7148,451.1548,1772.7148" style="stroke:#181818;stroke-width:1.0;"/><line style="stroke:#181818;stroke-width:1.0;stroke-dasharray:2.0,2.0;" x1="53.6138" x2="453.1548" y1="1772.7148" y2="1772.7148"/><text fill="#000000" font-family="sans-serif" font-size="13" lengthAdjust="spacing" textLength="132.2407" x="60.6138" y="1767.4521">return assigned project</text><polygon fill="#181818" points="64.6138,1800.0059,54.6138,1804.0059,64.6138,1808.0059,60.6138,1804.0059" style="stroke:#181818;stroke-width:1.0;"/><line style="stroke:#181818;stroke-width:1.0;stroke-dasharray:2.0,2.0;" x1="58.6138" x2="458.1548" y1="1804.0059" y2="1804.0059"/><text fill="#000000" font-family="sans-serif" font-size="13" lengthAdjust="spacing" textLength="126.4453" x="70.6138" y="1798.7432">Display project details</text><polygon fill="#181818" points="447.1548,1831.2969,457.1548,1835.2969,447.1548,1839.2969,451.1548,1835.2969" style="stroke:#181818;stroke-width:1.0;"/><line style="stroke:#181818;stroke-width:1.0;" x1="53.6138" x2="453.1548" y1="1835.2969" y2="1835.2969"/><text fill="#000000" font-family="sans-serif" font-size="13" lengthAdjust="spacing" textLength="147.9766" x="60.6138" y="1830.0342">Select "Handle Enquiries"</text><polygon fill="#181818" points="1045.8188,1862.5879,1055.8188,1866.5879,1045.8188,1870.5879,1049.8188,1866.5879" style="stroke:#181818;stroke-width:1.0;"/><line style="stroke:#181818;stroke-width:1.0;" x1="459.1548" x2="1051.8188" y1="1866.5879" y2="1866.5879"/><text fill="#000000" font-family="sans-serif" font-size="13" lengthAdjust="spacing" textLength="333.0806" x="466.1548" y="1861.3252">replyToEnquiriesOfficer(officer, assignedProject, scanner)</text><polygon fill="#181818" points="1215.0786,1893.8789,1225.0786,1897.8789,1215.0786,1901.8789,1219.0786,1897.8789" style="stroke:#181818;stroke-width:1.0;"/><line style="stroke:#181818;stroke-width:1.0;" x1="1057.8188" x2="1221.0786" y1="1897.8789" y2="1897.8789"/><text fill="#000000" font-family="sans-serif" font-size="13" lengthAdjust="spacing" textLength="80.9263" x="1064.8188" y="1892.6162">getEnquiries()</text><polygon fill="#181818" points="1068.8188,1925.1699,1058.8188,1929.1699,1068.8188,1933.1699,1064.8188,1929.1699" style="stroke:#181818;stroke-width:1.0;"/><line style="stroke:#181818;stroke-width:1.0;stroke-dasharray:2.0,2.0;" x1="1062.8188" x2="1226.0786" y1="1929.1699" y2="1929.1699"/><text fill="#000000" font-family="sans-serif" font-size="13" lengthAdjust="spacing" textLength="90.3271" x="1074.8188" y="1923.9072">return enquiries</text><polygon fill="#181818" points="64.6138,1956.4609,54.6138,1960.4609,64.6138,1964.4609,60.6138,1960.4609" style="stroke:#181818;stroke-width:1.0;"/><line style="stroke:#181818;stroke-width:1.0;stroke-dasharray:2.0,2.0;" x1="58.6138" x2="1056.8188" y1="1960.4609" y2="1960.4609"/><text fill="#000000" font-family="sans-serif" font-size="13" lengthAdjust="spacing" textLength="98.9917" x="70.6138" y="1955.1982">Display enquiries</text><polygon fill="#181818" points="1045.8188,1987.752,1055.8188,1991.752,1045.8188,1995.752,1049.8188,1991.752" style="stroke:#181818;stroke-width:1.0;"/><line style="stroke:#181818;stroke-width:1.0;" x1="53.6138" x2="1051.8188" y1="1991.752" y2="1991.752"/><text fill="#000000" font-family="sans-serif" font-size="13" lengthAdjust="spacing" textLength="211.0215" x="60.6138" y="1986.4893">Select enquiry and provide response</text><polygon fill="#181818" points="1215.0786,2019.043,1225.0786,2023.043,1215.0786,2027.043,1219.0786,2023.043" style="stroke:#181818;stroke-width:1.0;"/><line style="stroke:#181818;stroke-width:1.0;" x1="1057.8188" x2="1221.0786" y1="2023.043" y2="2023.043"/><text fill="#000000" font-family="sans-serif" font-size="13" lengthAdjust="spacing" textLength="145.2598" x="1064.8188" y="2017.7803">Update enquiry response</text><polygon fill="#181818" points="1068.8188,2050.334,1058.8188,2054.334,1068.8188,2058.334,1064.8188,2054.334" style="stroke:#181818;stroke-width:1.0;"/><line style="stroke:#181818;stroke-width:1.0;stroke-dasharray:2.0,2.0;" x1="1062.8188" x2="1226.0786" y1="2054.334" y2="2054.334"/><text fill="#000000" font-family="sans-serif" font-size="13" lengthAdjust="spacing" textLength="70.8081" x="1074.8188" y="2049.0713">confirmation</text><polygon fill="#181818" points="64.6138,2081.625,54.6138,2085.625,64.6138,2089.625,60.6138,2085.625" style="stroke:#181818;stroke-width:1.0;"/><line style="stroke:#181818;stroke-width:1.0;stroke-dasharray:2.0,2.0;" x1="58.6138" x2="1056.8188" y1="2085.625" y2="2085.625"/><text fill="#000000" font-family="sans-serif" font-size="13" lengthAdjust="spacing" textLength="149.5571" x="70.6138" y="2080.3623">Display success message</text><!--SRC=[jLTTJ-iu47tFhnZrXLQ2_G6LG8Bbeekqw28kTzzDCYtUJMElxOBwxtViZ1FRILlsOQ_45OcFv-FCcSdWf6iHlj_VmO_DHjPeBYoyA7fr1NUlF-1MwrRMmadLWUWQU3RgBwmTF8bER767dOE7LdrMbQYTCh1W8miG5lOMJQM5SRAMMX1oyIHazuVQoYwSx-9J3lf5rrvGAol9uc6mv5_bGFRrh8mJRS3fy6kEueZxWFl0DBtYvnoRPFkTicqPBxJcnnp-hVjdByqXXMBsAeU_uawtmY57D8H2lvSqXTYIn7RfcyXrcX83gke2hg-luR6JJeeM0hs-Q3LQwqygJoLStOpahndqATqxr0ORgYbTjTM0yF1OWJMq_jNIFzjBiBNeEZIhAfx3LMxReDkRBceBr5l8DZFT5stjVHCva5LrgVgdIz2xIn3lbu3lgwg_4LnvlskubvQOFO2ARhGleOrib4BsYWraR8tQwt1qW0rHwe549cCxLm7zYup5E7zYwpjWaLrR16ZuxmB-bFW9uaF8LhnH9t6DRJYDiT-aAbp35bqX3xjSzHT6MCWuXi7Cjj8wolkSkmbLsCgjdC0v0KwHZqBZ2v_jAJvIy8Ro07VGMAGyDjAwD_YW3ASxLje6UzZmGIAo9C8eQJ6MDPoC7YB5P68DlxzZ_NVaIBRI7GPkVSnNHMpCROe7wuJR9oo9rWtJS20_d4pZwActwFo5e2vibaMUgtDt4mN_3B4i5y_ODRBRUi4QzK6pucj6i7cW0hrIVOOW_CEnooapKItiEJh-JU-J2kfJ6KqbRFTrg6N2y4df9ZM7MdKRQNQZ0B2rEDIbK-TgCuq6ZQ6Mtb50r7BdWvd2YPdA__3mYR44bxvOBxYbdZMpewW_ey2SwY-CkT1Suj7uXQaqVbdYJ9mPKDIeDklT_tL0VMqi7HbZ7FUGd3hFn96S61IcpwrbHcCc0wpi5qvvl33Rl3brOV3SDeslfUxRXM_RGCfa0XN4JQJztniYaM6iKEpOKdcJSvwmmJFr4OBweEDi4LaFjsWfi42VSoyFarOi0Wn-aEQoUTsRtaNbt9IsHOW4cRDa-aNXPVYCTHBhSyvuejL8T-6kb2kFLbQQdVCu6XbhCNkl88CposLyd8Y-93Y7didzAO5wwR6pvhJs2fSJxN46ltJZTxHeFfdOau36ZP6gmSxl3dwvVxoFduh7-zNGmidsE5UNOeCywhBlMclbjfjfs-pBz8LgYjWDnzegXZMPyhUran-qXADDcco2UZjaG_qYBYeX_l3NLK9nEUZwASwf7jioUqws9pXP9SQdKwYqVteIHKarw6YEP-Bdprb4z7ye4JqdlsPywLi4BuhiyZ-tVD0qrb_LW8yv3gk9o5aebilSN3bI1gipmsGQIBzCP5cMvgVBH0PdubxGQjM5pmWRo2WhFJDr_3fyvRs6POCKbBTayLoktENHH7RjLDBJPUnSmd7rY_kJxwn_0G00]--></g></svg>